name Walk5.mot
datacolumns 19
datarows 30
range 2.01500000 2.16000000
endheader

                time	   L_ground_force_vx	   L_ground_force_vy	   L_ground_force_vz	   L_ground_force_px	   L_ground_force_py	   L_ground_force_pz	   R_ground_force_vx	   R_ground_force_vy	   R_ground_force_vz	   R_ground_force_px	   R_ground_force_py	   R_ground_force_pz	   L_ground_torque_x	   L_ground_torque_y	   L_ground_torque_z	   R_ground_torque_x	   R_ground_torque_y	   R_ground_torque_z	
          2.01500000	          0.01084023	          0.03350991	         -0.00213129	         -0.00019278	          0.00000000	         -0.00008398	        -25.50616817	        519.73830298	        -44.57431285	          0.26254920	          0.00000000	          0.08832359	          0.00000000	          0.00013582	          0.00000000	          0.00000000	          0.95275220	          0.00000000	
          2.02000000	          0.00518374	          0.01595361	         -0.00188493	         -0.00014706	          0.00000000	         -0.00006509	        -23.78537119	        513.31361042	        -44.06523873	          0.26499115	          0.00000000	          0.08874674	          0.00000000	          0.00009500	          0.00000000	          0.00000000	          0.92716088	          0.00000000	
          2.02500000	          0.00114637	          0.00343336	         -0.00157787	         -0.00010610	          0.00000000	         -0.00004783	        -22.17805115	        507.57981493	        -43.55566520	          0.26740056	          0.00000000	          0.08912529	          0.00000000	          0.00006131	          0.00000000	          0.00000000	          0.90794467	          0.00000000	
          2.03000000	         -0.00153338	         -0.00486717	         -0.00125617	         -0.00007145	          0.00000000	         -0.00003298	        -20.66880194	        502.53309666	        -43.05496354	          0.26976396	          0.00000000	          0.08945642	          0.00000000	          0.00003486	          0.00000000	          0.00000000	          0.89527036	          0.00000000	
          2.03500000	         -0.00313059	         -0.00980521	         -0.00095052	         -0.00004358	          0.00000000	         -0.00002085	        -19.24141738	        498.16376300	        -42.57596269	          0.27206796	          0.00000000	          0.08973872	          0.00000000	          0.00001514	          0.00000000	          0.00000000	          0.88845948	          0.00000000	
          2.04000000	         -0.00390725	         -0.01219640	         -0.00067933	         -0.00002226	          0.00000000	         -0.00001142	        -17.87834708	        494.46091527	        -42.13305315	          0.27430158	          0.00000000	          0.08997196	          0.00000000	          0.00000129	          0.00000000	          0.00000000	          0.88620264	          0.00000000	
          2.04500000	         -0.00409629	         -0.01276524	         -0.00045170	         -0.00000682	          0.00000000	         -0.00000447	        -16.56069874	        491.41622532	        -41.74038404	          0.27645504	          0.00000000	          0.09015763	          0.00000000	         -0.00000769	          0.00000000	          0.00000000	          0.88678273	          0.00000000	
          2.05000000	         -0.00389355	         -0.01212045	         -0.00027000	          0.00000361	          0.00000000	          0.00000034	        -15.26959262	        489.02335794	        -41.41071704	          0.27851785	          0.00000000	          0.09029807	          0.00000000	         -0.00001284	          0.00000000	          0.00000000	          0.88864043	          0.00000000	
          2.05500000	         -0.00345561	         -0.01074838	         -0.00013213	          0.00001002	          0.00000000	          0.00000340	        -13.98674778	        487.27987104	        -41.15479965	          0.28048110	          0.00000000	          0.09039626	          0.00000000	         -0.00001513	          0.00000000	          0.00000000	          0.89055804	          0.00000000	
          2.06000000	         -0.00290147	         -0.00901843	         -0.00003326	          0.00001334	          0.00000000	          0.00000509	        -12.69601957	        486.19154972	        -40.98136540	          0.28234008	          0.00000000	          0.09045670	          0.00000000	         -0.00001540	          0.00000000	          0.00000000	          0.89153272	          0.00000000	
          2.06500000	         -0.00231663	         -0.00719579	          0.00003277	          0.00001441	          0.00000000	          0.00000577	        -11.38526627	        485.77383948	        -40.89754690	          0.28409444	          0.00000000	          0.09048525	          0.00000000	         -0.00001435	          0.00000000	          0.00000000	          0.89097927	          0.00000000	
          2.07000000	         -0.00175838	         -0.00545787	          0.00007252	          0.00001396	          0.00000000	          0.00000576	        -10.04717938	        486.04870434	        -40.90835804	          0.28574525	          0.00000000	          0.09048764	          0.00000000	         -0.00001255	          0.00000000	          0.00000000	          0.88891817	          0.00000000	
          2.07500000	         -0.00126131	         -0.00391173	          0.00009228	          0.00001256	          0.00000000	          0.00000529	         -8.68006267	        487.03967296	        -41.01578128	          0.28729415	          0.00000000	          0.09046911	          0.00000000	         -0.00001040	          0.00000000	          0.00000000	          0.88545639	          0.00000000	
          2.08000000	         -0.00084279	         -0.00261085	          0.00009765	          0.00001068	          0.00000000	          0.00000457	         -7.28802437	        488.76666393	        -41.21835198	          0.28874585	          0.00000000	          0.09043429	          0.00000000	         -0.00000820	          0.00000000	          0.00000000	          0.88063442	          0.00000000	
          2.08500000	         -0.00050776	         -0.00157013	          0.00009337	          0.00000862	          0.00000000	          0.00000375	         -5.87919168	        491.24209405	        -41.51112809	          0.29010766	          0.00000000	          0.09038715	          0.00000000	         -0.00000614	          0.00000000	          0.00000000	          0.87516529	          0.00000000	
          2.09000000	         -0.00025274	         -0.00077856	          0.00008324	          0.00000662	          0.00000000	          0.00000292	         -4.46333715	        494.46736068	        -41.88617664	          0.29138742	          0.00000000	          0.09033098	          0.00000000	         -0.00000433	          0.00000000	          0.00000000	          0.87052755	          0.00000000	
          2.09500000	         -0.00006922	         -0.00020936	          0.00007017	          0.00000482	          0.00000000	          0.00000217	         -3.05047587	        498.43159292	        -42.33292159	          0.29259506	          0.00000000	          0.09026892	          0.00000000	         -0.00000283	          0.00000000	          0.00000000	          0.86833471	          0.00000000	
          2.10000000	          0.00005394	          0.00017221	          0.00005623	          0.00000328	          0.00000000	          0.00000151	         -1.65103661	        503.11119278	        -42.83847744	          0.29374427	          0.00000000	          0.09020326	          0.00000000	         -0.00000164	          0.00000000	          0.00000000	          0.86961191	          0.00000000	
          2.10500000	          0.00012866	          0.00040328	          0.00004285	          0.00000203	          0.00000000	          0.00000097	         -0.27427924	        508.46670697	        -43.38820794	          0.29484793	          0.00000000	          0.09013405	          0.00000000	         -0.00000075	          0.00000000	          0.00000000	          0.87495133	          0.00000000	
          2.11000000	          0.00016640	          0.00051957	          0.00003087	          0.00000107	          0.00000000	          0.00000054	          1.07460648	        514.44070265	        -43.96656777	          0.29591323	          0.00000000	          0.09006067	          0.00000000	         -0.00000012	          0.00000000	          0.00000000	          0.88483233	          0.00000000	
          2.11500000	          0.00017744	          0.00055305	          0.00002075	          0.00000037	          0.00000000	          0.00000023	          2.39649695	        520.96426571	        -44.55802613	          0.29694355	          0.00000000	          0.08998168	          0.00000000	          0.00000029	          0.00000000	          0.00000000	          0.89941197	          0.00000000	
          2.12000000	          0.00017049	          0.00053078	          0.00001262	         -0.00000011	          0.00000000	          0.00000001	          3.69966731	        527.96573595	        -45.14852412	          0.29794151	          0.00000000	          0.08989392	          0.00000000	          0.00000053	          0.00000000	          0.00000000	          0.91863828	          0.00000000	
          2.12500000	          0.00015254	          0.00047453	          0.00000641	         -0.00000041	          0.00000000	         -0.00000013	          4.99927373	        535.37623242	        -45.72720519	          0.29890705	          0.00000000	          0.08979414	          0.00000000	          0.00000065	          0.00000000	          0.00000000	          0.94258202	          0.00000000	
          2.13000000	          0.00012897	          0.00040092	          0.00000192	         -0.00000056	          0.00000000	         -0.00000021	          6.31584961	        543.13307139	        -46.28720833	          0.29984017	          0.00000000	          0.08967950	          0.00000000	          0.00000067	          0.00000000	          0.00000000	          0.97112673	          0.00000000	
          2.13500000	          0.00010366	          0.00032201	         -0.00000111	         -0.00000062	          0.00000000	         -0.00000025	          7.67426009	        551.17713739	        -46.82583156	          0.30074071	          0.00000000	          0.08954757	          0.00000000	          0.00000063	          0.00000000	          0.00000000	          1.00388899	          0.00000000	
          2.14000000	          0.00007923	          0.00024594	         -0.00000297	         -0.00000061	          0.00000000	         -0.00000025	          9.10236286	        559.44943898	        -47.34402701	          0.30160530	          0.00000000	          0.08939786	          0.00000000	          0.00000055	          0.00000000	          0.00000000	          1.04050259	          0.00000000	
          2.14500000	          0.00005729	          0.00017770	         -0.00000392	         -0.00000055	          0.00000000	         -0.00000023	         10.62973640	        567.89016317	        -47.84651010	          0.30242865	          0.00000000	          0.08923282	          0.00000000	          0.00000046	          0.00000000	          0.00000000	          1.08067767	          0.00000000	
          2.15000000	          0.00003870	          0.00011989	         -0.00000423	         -0.00000047	          0.00000000	         -0.00000020	         12.28517428	        576.43821363	        -48.34137149	          0.30320628	          0.00000000	          0.08905740	          0.00000000	          0.00000037	          0.00000000	          0.00000000	          1.12372673	          0.00000000	
          2.15500000	          0.00002371	          0.00007334	         -0.00000409	         -0.00000039	          0.00000000	         -0.00000017	         14.09245271	        585.03291941	        -48.83939619	          0.30393606	          0.00000000	          0.08887735	          0.00000000	          0.00000028	          0.00000000	          0.00000000	          1.16832966	          0.00000000	
          2.16000000	          0.00001222	          0.00003768	         -0.00000367	         -0.00000030	          0.00000000	         -0.00000013	         16.06772654	        593.61283457	        -49.35171966	          0.30461766	          0.00000000	          0.08869694	          0.00000000	          0.00000020	          0.00000000	          0.00000000	          1.21271408	          0.00000000	
